# xmcd CD database file
#
# Track frame offsets:
#	150
#	16332
#	37922
#	55217
#	71250
#	88525
#	108160
#	125562
#	146810
#	163672
#
# Disc length: 2513 seconds
#
# Revision: 0
# Processed by: cddbd v1.5.1PL0 Copyright (c) Steve Scherf et al.
# Submitted via: CDex 1.51
#
DISCID=7e09cf0a
DTITLE=QUJILA - PANORAMA
DYEAR=1985
DGENRE=Rock
TTITLE0=鋼
TTITLE1=ランドリー
TTITLE2=青空
TTITLE3=ヴェロナアル
TTITLE4=ひまわり
TTITLE5=パノラマ
TTITLE6=エア・アタック
TTITLE7=ハート・ビート
TTITLE8=サンデー・モーニング
TTITLE9=KAPPA
EXTD=YEAR: 1985
EXTT0=
EXTT1=
EXTT2=
EXTT3=
EXTT4=
EXTT5=
EXTT6=
EXTT7=
EXTT8=
EXTT9=
PLAYORDER=
